<svg xmlns="http://www.w3.org/2000/svg" width="128" height="128" viewBox="0 0 128 128">
  <defs>
    <linearGradient id="gradient" x1="0%" y1="0%" x2="100%" y2="100%">
      <stop offset="0%" stop-color="#3498db" />
      <stop offset="100%" stop-color="#2980b9" />
    </linearGradient>
  </defs>
  <rect width="128" height="128" rx="20" fill="url(#gradient)" />
  <circle cx="64" cy="64" r="32" fill="#ecf0f1" />
  <rect x="62" y="40" width="4" height="24" fill="#2c3e50" />
  <rect x="62" y="64" width="24" height="4" fill="#2c3e50" />
  <path d="M24,48 L24,32 L8,32 L8,24 L32,24 L32,48 Z" fill="#ecf0f1" />
  <path d="M104,48 L104,32 L120,32 L120,24 L96,24 L96,48 Z" fill="#ecf0f1" />
  <path d="M24,80 L24,96 L8,96 L8,104 L32,104 L32,80 Z" fill="#ecf0f1" />
  <path d="M104,80 L104,96 L120,96 L120,104 L96,104 L96,80 Z" fill="#ecf0f1" />
</svg>
